<?xml version="1.0" standalone="no"?>
<!DOCTYPE svg PUBLIC "-//W3C//DTD SVG 20010904//EN"
 "http://www.w3.org/TR/2001/REC-SVG-20010904/DTD/svg10.dtd">
<svg version="1.0" xmlns="http://www.w3.org/2000/svg"
 width="300.000000pt" height="300.000000pt" viewBox="0 0 300.000000 300.000000"
 preserveAspectRatio="xMidYMid meet">
<metadata>
Created by potrace 1.10, written by Peter Selinger 2001-2011
</metadata>
<g transform="translate(0.000000,300.000000) scale(0.100000,-0.100000)"
fill="#000000" stroke="none">
<path d="M1060 1865 l0 -35 85 0 85 0 0 -245 0 -245 35 0 35 0 0 245 0 245
115 0 115 0 0 35 0 35 -235 0 -235 0 0 -35z"/>
<path d="M1496 1744 c-9 -9 -14 -19 -11 -22 3 -4 10 0 15 7 8 14 40 8 40 -7 0
-5 -7 -15 -15 -22 -8 -7 -15 -19 -15 -26 0 -24 15 -15 29 18 21 48 -10 86 -43
52z"/>
<path d="M1473 1622 c-55 -35 -54 -46 1 -21 44 19 44 19 90 -1 25 -10 46 -16
46 -12 0 5 -64 48 -90 59 -3 1 -24 -10 -47 -25z"/>
<path d="M1316 1233 c-3 -3 -6 -26 -6 -50 0 -44 0 -44 -22 -29 -30 21 -50 20
-81 -4 -75 -60 -14 -176 75 -142 16 6 28 6 28 1 0 -5 6 -9 14 -9 10 0 13 25
13 115 0 108 -5 134 -21 118z m-28 -99 c45 -31 21 -114 -33 -114 -33 0 -55 26
-55 65 0 33 27 65 55 65 6 0 21 -7 33 -16z"/>
<path d="M1570 1120 c0 -73 4 -120 10 -120 6 0 10 25 10 55 0 42 5 60 20 75
23 23 33 24 61 10 16 -9 19 -22 19 -75 0 -53 3 -65 16 -65 14 0 16 10 12 64
-6 95 -48 131 -106 90 -22 -15 -22 -15 -22 35 0 28 -4 51 -10 51 -6 0 -10 -47
-10 -120z"/>
<path d="M2380 1189 c0 -50 0 -50 -22 -35 -33 23 -56 20 -90 -14 -26 -27 -30
-36 -25 -68 4 -20 16 -45 28 -54 26 -22 72 -23 93 -2 15 14 16 14 16 0 0 -9 5
-16 10 -16 6 0 10 47 10 120 0 73 -4 120 -10 120 -5 0 -10 -23 -10 -51z m-20
-59 c24 -24 26 -67 3 -92 -20 -22 -66 -24 -83 -2 -21 25 -16 75 9 96 30 23 46
23 71 -2z"/>
<path d="M460 1210 c0 -5 16 -10 35 -10 l35 0 0 -100 c0 -82 3 -100 15 -100
12 0 15 18 15 100 l0 100 35 0 c19 0 35 5 35 10 0 6 -35 10 -85 10 -50 0 -85
-4 -85 -10z"/>
<path d="M1370 1210 c0 -5 16 -10 35 -10 l35 0 0 -100 c0 -75 3 -100 13 -100
10 0 12 23 9 100 l-4 100 41 0 c22 0 41 5 41 10 0 6 -35 10 -85 10 -50 0 -85
-4 -85 -10z"/>
<path d="M667 1164 c-4 -4 -7 -43 -7 -86 0 -63 3 -78 15 -78 11 0 15 13 15 53
0 54 19 87 48 87 7 0 12 7 12 15 0 19 -11 19 -35 1 -17 -12 -21 -12 -30 1 -6
8 -14 11 -18 7z"/>
<path d="M825 1158 c-31 -18 -44 -40 -45 -74 0 -47 34 -84 76 -84 40 0 77 16
69 31 -4 6 -13 5 -25 -1 -29 -15 -65 -12 -83 8 -29 31 -19 37 53 34 58 -3 70
-1 70 12 0 28 -22 64 -47 75 -30 14 -43 13 -68 -1z m69 -24 c31 -31 20 -44
-39 -44 -59 0 -67 8 -35 40 24 24 53 26 74 4z"/>
<path d="M987 1164 c-11 -11 -9 -164 3 -164 6 0 10 23 10 50 0 41 5 56 25 75
29 30 39 31 66 4 17 -17 20 -31 17 -75 -2 -38 1 -54 10 -54 8 0 12 20 12 65 0
52 -4 69 -20 85 -26 26 -62 25 -86 -1 l-19 -21 -5 22 c-3 12 -8 18 -13 14z"/>
<path d="M1770 1168 c-1 -2 -2 -40 -3 -86 -1 -60 1 -82 11 -82 8 0 12 16 12
46 0 55 13 82 46 94 13 5 24 14 24 20 0 17 -29 11 -50 -10 -15 -15 -20 -16
-20 -6 0 12 -19 34 -20 24z"/>
<path d="M1908 1150 c-14 -11 -28 -32 -31 -46 -6 -35 10 -82 33 -94 28 -15 86
-12 100 5 16 19 5 34 -12 17 -17 -17 -64 -15 -82 4 -31 31 -19 39 49 36 64 -4
65 -3 65 23 0 33 -41 75 -73 75 -13 0 -36 -9 -49 -20z m80 -16 c40 -28 28 -44
-33 -44 -41 0 -55 4 -55 14 0 16 37 46 55 46 6 0 21 -7 33 -16z"/>
<path d="M2091 1156 c-30 -17 -11 -30 22 -15 28 13 67 -2 67 -26 0 -11 -12
-15 -40 -15 -63 0 -100 -48 -64 -84 18 -19 75 -21 92 -4 9 9 12 9 12 0 0 -7 5
-12 10 -12 6 0 10 30 10 69 0 61 -3 72 -22 85 -27 19 -55 20 -87 2z m89 -94
c0 -26 -20 -42 -52 -42 -30 0 -44 19 -34 45 3 10 19 15 46 15 32 0 40 -4 40
-18z"/>
<path d="M2468 1159 c-11 -6 -18 -22 -18 -39 0 -24 6 -31 45 -46 32 -12 45
-22 43 -33 -4 -19 -54 -27 -72 -12 -17 14 -29 2 -15 -16 14 -16 81 -17 97 -1
7 7 12 23 12 35 0 19 -10 28 -45 43 -25 11 -45 26 -45 34 0 20 35 29 60 16 28
-15 40 -2 16 16 -23 16 -54 18 -78 3z"/>
</g>
</svg>
